<?xml version="1.0" encoding="UTF-8"?>
<svg xmlns="http://www.w3.org/2000/svg" xmlns:xlink="http://www.w3.org/1999/xlink" width="417pt" height="104pt" viewBox="0 0 417 104" version="1.1">
<g id="surface1">
<path style=" stroke:none;fill-rule:evenodd;fill:rgb(13.699341%,12.199402%,12.5%);fill-opacity:1;" d="M 0.347656 0.71875 L 416.347656 0.71875 L 416.347656 103.71875 L 0.347656 103.71875 L 0.347656 0.71875 "/>
<path style=" stroke:none;fill-rule:evenodd;fill:rgb(100%,79.598999%,1.599121%);fill-opacity:1;" d="M 25.472656 87.90625 L 51.097656 87.90625 L 51.097656 46.019531 L 25.472656 46.019531 L 25.472656 87.90625 "/>
<path style=" stroke:none;fill-rule:evenodd;fill:rgb(100%,79.598999%,1.599121%);fill-opacity:1;" d="M 25.472656 37.332031 L 51.097656 37.332031 L 51.097656 16.609375 L 25.472656 16.609375 L 25.472656 37.332031 "/>
<path style=" stroke:none;fill-rule:evenodd;fill:rgb(100%,79.598999%,1.599121%);fill-opacity:1;" d="M 346.46875 13.621094 C 369.949219 13.621094 389.226563 29.109375 391.21875 48.84375 L 363.925781 48.84375 C 362.136719 41.433594 354.570313 35.871094 345.507813 35.871094 C 336.449219 35.871094 328.882813 41.433594 327.09375 48.84375 L 301.722656 48.84375 C 303.710938 29.109375 322.988281 13.621094 346.46875 13.621094 Z M 391.21875 55.589844 C 389.226563 75.324219 369.949219 90.8125 346.46875 90.8125 C 322.988281 90.8125 303.710938 75.324219 301.722656 55.589844 L 327.09375 55.589844 C 328.882813 62.996094 336.449219 68.5625 345.507813 68.5625 C 354.570313 68.5625 362.136719 62.996094 363.925781 55.589844 L 391.21875 55.589844 "/>
<path style=" stroke:none;fill-rule:evenodd;fill:rgb(100%,79.598999%,1.599121%);fill-opacity:1;" d="M 63.390625 16.421875 L 122.773438 16.421875 C 132.183594 16.421875 139.878906 24.117188 139.878906 33.523438 L 139.878906 88.382813 L 112.085938 88.382813 L 112.085938 38.214844 C 112.085938 36.289063 110.613281 34.714844 108.8125 34.714844 L 89.882813 34.714844 L 89.882813 88.382813 L 63.390625 88.382813 L 63.390625 16.421875 "/>
<path style=" stroke:none;fill-rule:evenodd;fill:rgb(100%,79.598999%,1.599121%);fill-opacity:1;" d="M 204.332031 43.46875 L 227.167969 43.46875 L 227.167969 61.78125 L 204.332031 61.78125 L 204.332031 43.46875 "/>
<path style=" stroke:none;fill-rule:evenodd;fill:rgb(100%,79.598999%,1.599121%);fill-opacity:1;" d="M 292.539063 16.421875 L 265.257813 16.421875 C 222.664063 17.667969 215.09375 84.421875 265.257813 88.382813 L 292.539063 88.382813 L 292.539063 70.695313 C 269.234375 72.765625 256.78125 66.710938 258.179688 50.855469 C 259.757813 36.285156 274.851563 33.742188 292.789063 35.226563 L 292.539063 16.421875 "/>
<path style=" stroke:none;fill-rule:evenodd;fill:rgb(100%,79.598999%,1.599121%);fill-opacity:1;" d="M 219.03125 16.421875 L 188.136719 16.421875 C 139.902344 17.667969 131.328125 84.421875 188.136719 88.382813 L 219.03125 88.382813 L 219.03125 64.316406 C 195.402344 82.4375 172.90625 66.710938 174.484375 50.855469 C 175.492188 42.660156 180.128906 35.425781 189.734375 35.378906 L 219.3125 35.226563 L 219.03125 16.421875 "/>
</g>
</svg>
